
<svg version="1.0" xmlns="http://www.w3.org/2000/svg"
 width="225.000000pt" height="225.000000pt" viewBox="0 0 225.000000 225.000000"
 preserveAspectRatio="xMidYMid meet">

<g transform="translate(0.000000,225.000000) scale(0.100000,-0.100000)"
fill="#c3853a" stroke="none">
<path d="M1005 2154 c-11 -2 -45 -9 -75 -15 -209 -40 -401 -148 -558 -314
-167 -177 -261 -388 -278 -626 -8 -104 -1 -139 26 -139 28 0 36 27 43 145 25
400 319 752 717 855 118 31 305 38 424 16 116 -22 249 -76 344 -140 l77 -51
-105 -5 c-104 -5 -105 -5 -105 -30 l0 -25 168 -3 167 -2 0 164 c0 158 -1 165
-21 171 -35 11 -42 -8 -40 -119 1 -58 0 -106 -3 -106 -3 0 -44 25 -92 56 -167
109 -337 162 -539 169 -71 2 -139 2 -150 -1z"/>
<path d="M947 1861 c-146 -40 -263 -108 -363 -213 -144 -150 -214 -320 -214
-523 0 -127 21 -213 81 -335 45 -91 64 -117 144 -196 79 -80 104 -98 195 -142
229 -111 445 -111 669 -1 89 44 118 64 191 138 98 97 155 185 197 306 26 74
28 92 28 230 0 143 -1 154 -31 238 -41 113 -83 183 -167 273 -108 116 -241
194 -389 229 -88 21 -256 18 -341 -4z m349 -67 c141 -36 290 -131 370 -237 99
-131 148 -273 148 -432 0 -121 -19 -199 -76 -315 -33 -69 -58 -102 -127 -170
-142 -142 -285 -200 -490 -200 -199 0 -341 59 -482 200 -168 167 -234 371
-195 600 38 224 181 413 387 509 148 69 310 85 465 45z"/>
<path d="M1102 1768 c-25 -25 -7 -128 23 -128 17 0 35 38 35 74 0 41 -13 66
-35 66 -6 0 -16 -5 -23 -12z"/>
<path d="M1106 1494 c-12 -12 -16 -37 -16 -109 l0 -93 -35 -21 c-53 -31 -81
-112 -56 -160 8 -14 -10 -37 -100 -127 -145 -144 -191 -198 -183 -218 14 -37
49 -13 193 128 l146 145 41 -11 c35 -10 47 -9 80 9 47 24 84 75 84 115 0 45
-30 99 -67 120 l-33 20 0 93 c0 72 -4 97 -16 109 -8 9 -17 16 -19 16 -2 0 -11
-7 -19 -16z m63 -282 c31 -24 31 -79 1 -104 -49 -40 -110 -11 -110 52 0 62 61
92 109 52z"/>
<path d="M479 1144 c-24 -29 1 -49 62 -49 49 0 54 2 57 24 2 13 -2 28 -10 32
-23 15 -94 10 -109 -7z"/>
<path d="M1651 1141 c-18 -33 7 -53 63 -49 92 6 87 68 -5 68 -37 0 -51 -4 -58
-19z"/>
<path d="M1105 594 c-20 -21 -20 -97 1 -115 23 -19 48 1 52 41 7 67 -21 106
-53 74z"/>
<path d="M2096 1128 c-9 -35 -7 -45 10 -62 12 -12 20 -13 35 -5 16 8 19 19 17
47 -3 32 -7 37 -29 40 -20 2 -28 -2 -33 -20z"/>
<path d="M116 975 c-11 -12 -12 -23 -5 -47 5 -18 9 -34 9 -35 0 -11 49 0 53
11 10 26 -13 86 -34 86 -4 0 -14 -7 -23 -15z"/>
<path d="M2087 973 c-27 -48 -5-103 34 -82 29 15 23 83 -8 87 -11 2 -23 0
-26 -5z"/>
<path d="M163 813 c-19 -7 -16 -47 5 -74 36 -44 71 7 42 62 -11 19 -23 22 -47
12z"/>
<path d="M2034 784 c-14 -33 -14 -38 0 -53 13 -12 20 -13 34 -5 26 17 38 59
22 78 -20 26 -40 18 -56 -20z"/>
<path d="M226 644 c-10 -26 22 -76 47 -72 26 4 34 32 16 64 -14 27 -54 32 -63
8z"/>
<path d="M1960 633 c-8 -16 -15 -31 -17 -35 -6 -12 28 -37 43 -31 25 9 47 62
33 79 -18 22 -44 16 -59 -13z"/>
<path d="M324 505 c-9 -22 14 -63 39 -71 11 -4 26 0 35 10 15 14 14 18 -4 43
-25 33 -61 42 -70 18z"/>
<path d="M1861 496 c-27 -28 -25 -60 4 -64 30 -4 73 44 59 66 -17 26 -37 25
-63 -2z"/>
<path d="M452 388 c-18 -18 -15 -32 12 -57 47 -44 89 -2 45 45 -25 27 -39 30
-57 12z"/>
<path d="M1740 374 c-24 -21 -28 -29 -20 -45 14 -26 42 -24 69 4 42 46 0 82
-49 41z"/>
<path d="M592 288 c-17 -17 -15 -32 6 -50 28 -24 50 -28 66 -12 20 19 10 41
-25 59 -34 18 -32 18 -47 3z"/>
<path d="M1601 279 c-39 -24 -38 -53 1 -57 48 -6 85 55 44 71 -8 3 -28 -3 -45
-14z"/>
<path d="M744 205 c-10 -24 2 -42 34 -53 25 -9 33 -7 47 8 16 17 15 20 -4 39
-24 24 -69 28 -77 6z"/>
<path d="M1431 203 c-14 -12 -20 -24 -16 -35 10 -24 27 -28 64 -12 25 11 32
19 29 36 -4 30 -46 36 -77 11z"/>
<path d="M906 153 c-9 -22 14 -43 48 -46 36 -3 56 24 37 47 -18 22 -77 21 -85
-1z"/>
<path d="M1250 151 c-23 -45 55 -66 87 -24 20 25 4 43 -38 43 -28 0 -41 -5
-49 -19z"/>
<path d="M1080 139 c-17 -30 5 -51 49 -47 29 2 37 7 39 27 4 28 -12 41 -50 41
-17 0 -31 -7 -38 -21z"/>
</g>
</svg>
